PathFileType	4	(X/Y/Z)	C:/Users/opensim2020/Desktop/walking_exp_matlab/subject06_walking18_straight_01.trc	
DataRate	CameraRate	NumFrames	NumMarkers	Units	OrigDataRate	OrigDataStartFrame	OrigNumFrames	
100.00	100.00	6	47	mm	100.00	1216	396	
Frame#	Time	LFHD			RFHD			LBHD			RBHD			C7			T10			CLAV			STRN			RBAK			LSHO			LUPA			LELB			LFRM			LWRA			LWRB			LFIN			RSHO			RUPA			RELB			RFRM			RWRA			RWRB			RFIN			LASI			RASI			LPSI			RPSI			LTHI			LKNE			LTIB			LANK			LHEE			LTOE			RTHI			RKNE			RTIB			RANK			RHEE			RTOE			*39			*40			*41			*42			*43			*44			*45			*46			
		X1	Y1	Z1	X2	Y2	Z2	X3	Y3	Z3	X4	Y4	Z4	X5	Y5	Z5	X6	Y6	Z6	X7	Y7	Z7	X8	Y8	Z8	X9	Y9	Z9	X10	Y10	Z10	X11	Y11	Z11	X12	Y12	Z12	X13	Y13	Z13	X14	Y14	Z14	X15	Y15	Z15	X16	Y16	Z16	X17	Y17	Z17	X18	Y18	Z18	X19	Y19	Z19	X20	Y20	Z20	X21	Y21	Z21	X22	Y22	Z22	X23	Y23	Z23	X24	Y24	Z24	X25	Y25	Z25	X26	Y26	Z26	X27	Y27	Z27	X28	Y28	Z28	X29	Y29	Z29	X30	Y30	Z30	X31	Y31	Z31	X32	Y32	Z32	X33	Y33	Z33	X34	Y34	Z34	X35	Y35	Z35	X36	Y36	Z36	X37	Y37	Z37	X38	Y38	Z38	X39	Y39	Z39	X40	Y40	Z40	X41	Y41	Z41	X42	Y42	Z42	X43	Y43	Z43	X44	Y44	Z44	X45	Y45	Z45	X46	Y46	Z46	X47	Y47	Z47	

199	1.980	1368.96033	272.98865	1651.29602	1500.58887	279.99118	1640.27783	1375.63477	141.11093	1594.08728	1505.10986	148.92789	1588.40063	1436.41162	144.59911	1438.99072	1448.09412	103.25764	1110.11914	1426.40173	252.81966	1360.53369	1420.45081	288.23007	1183.89221	1525.35181	74.58115	1271.07642	1270.44312	180.23766	1393.02490	1203.47205	129.12758	1198.59229	1197.01160	98.08430	1090.33203	1176.89478	88.90995	939.54517	1215.73999	129.19453	815.96906	1183.93115	64.60726	822.54541	1182.70959	88.01290	734.62933	1590.04932	225.01454	1393.95605	1679.29517	212.47972	1193.04846	1687.65918	236.04074	1072.86987	1696.14832	271.56213	957.16919	1647.84119	345.19171	830.15985	1696.51111	300.14798	822.60107	1688.38684	347.56790	752.79272	1338.18677	281.71893	950.63409	1557.51697	274.12906	952.86926	1359.36572	122.22021	975.56561	1528.40186	122.63857	979.13452	1270.42957	270.80630	641.28253	1300.34143	310.97015	486.87250	1304.84985	340.83029	233.22937	1344.70154	386.29425	67.44008	1395.44617	355.29257	49.58955	1334.04675	532.38428	58.71777	1600.83313	175.87872	619.25549	1579.26306	154.56075	494.09149	1571.78235	20.91646	258.22076	1524.06848	-56.70508	87.26070	1483.17004	-104.41631	72.31074	1508.97046	89.33712	35.21621	1433.44873	174.97675	1687.60583																					 
200	1.990	1366.77710	280.01108	1651.54236	1498.40149	286.92868	1640.80261	1373.44958	148.26932	1593.97729	1502.98096	156.03239	1588.56567	1434.47107	152.12202	1439.31445	1446.79517	110.73267	1110.33179	1424.83240	260.25629	1360.74731	1419.16907	295.72040	1184.05615	1523.40540	81.93305	1271.23584	1268.50928	188.21111	1392.55713	1202.03821	137.32961	1197.78442	1195.58765	106.30622	1089.50183	1175.86902	97.19531	938.60986	1215.14233	137.29337	815.08734	1183.37451	72.71599	821.54767	1182.17627	96.42684	733.79938	1588.60461	232.20068	1394.19568	1677.72595	218.87086	1193.14624	1685.93591	242.08571	1072.88599	1694.54309	277.21298	957.02637	1646.48035	350.07809	829.58307	1695.10889	305.01297	822.30701	1687.18811	352.15784	752.39105	1336.98047	289.53525	951.10388	1556.26526	281.82584	952.61163	1358.09680	129.78490	976.49231	1527.01196	130.34727	979.14838	1268.93286	277.12582	642.12805	1298.54028	315.23779	486.84094	1303.43628	343.96503	233.05412	1344.02197	388.07666	67.07413	1395.14856	356.38416	50.77629	1333.53174	534.09851	55.02557	1599.50366	183.06276	618.97186	1578.00793	161.71861	493.72070	1571.35632	25.02660	259.47607	1524.45410	-55.40532	89.72268	1483.67444	-103.48772	75.54492	1509.17603	89.52319	35.08453	1431.07703	181.86928	1687.70801																					 
201	2.000	1364.55115	287.10962	1651.84399	1496.18750	293.93661	1641.47925	1371.26819	155.47371	1594.06494	1500.81470	163.17941	1588.94324	1432.47119	159.73813	1439.69519	1445.54871	118.17486	1110.79907	1423.27747	267.75089	1361.15332	1417.72705	303.19031	1184.47314	1521.63293	89.25875	1271.78369	1266.64392	196.22762	1392.41919	1200.60864	145.77370	1197.26282	1194.29761	114.78130	1088.95947	1174.90588	105.68092	937.98096	1214.45813	145.86153	814.58813	1182.46814	81.29454	821.02136	1181.52417	105.11308	733.22974	1587.08325	239.51457	1394.75708	1676.15149	225.19560	1193.75415	1684.27905	248.53351	1073.34778	1692.95789	282.73987	957.22339	1645.11108	354.81882	829.26831	1693.88770	309.55032	822.49249	1686.35583	356.76199	752.37329	1335.67041	297.34833	952.00269	1554.79053	289.60977	952.62274	1357.00708	137.28932	977.52380	1525.74829	138.18059	979.34222	1267.72766	282.89334	643.12372	1296.11243	320.07245	487.11328	1302.27209	346.63556	232.77345	1343.46960	389.24426	66.52769	1394.85205	356.72607	51.75740	1333.43384	535.41919	51.31854	1598.15930	190.59796	618.81793	1576.85266	169.18771	493.59268	1570.95056	29.35311	261.10620	1524.99292	-54.04417	92.59853	1484.34888	-102.31416	79.21962	1509.14343	89.46170	35.03139	1428.72546	188.82588	1687.99561																					 
202	2.010	1362.30078	294.25244	1652.35535	1493.96521	301.03052	1642.28162	1369.10022	162.75690	1594.28271	1498.61804	170.40280	1589.50146	1430.59290	167.15176	1440.20398	1444.30945	125.50666	1111.58203	1421.74231	275.28806	1361.74841	1416.25586	310.68787	1185.02026	1519.93799	96.85256	1272.50293	1264.78601	204.21173	1392.69275	1199.06384	154.48587	1197.16040	1192.93872	123.66943	1088.77612	1173.76233	114.59827	937.71765	1213.74976	154.73100	814.41193	1181.52014	90.48431	820.81134	1180.74536	114.07248	733.04755	1585.39551	246.93697	1395.63696	1674.10364	231.63640	1194.50415	1682.31836	254.61119	1074.07043	1691.28931	288.23834	957.78467	1643.72021	359.46088	829.26355	1692.32251	314.16788	822.76556	1684.94629	360.48520	752.30646	1334.12048	304.92087	953.18658	1553.12769	297.50278	952.88434	1356.04883	144.79080	978.69257	1524.54175	146.07393	979.66559	1265.88611	288.56491	643.89948	1294.20117	324.63782	487.35751	1301.33350	349.04242	232.67540	1343.31787	390.13535	66.16528	1394.42273	357.39777	51.99828	1333.59753	536.41620	48.85939	1596.76758	198.44920	618.89838	1575.73401	177.01398	493.67178	1570.75195	33.96169	263.02646	1525.66870	-52.21925	95.74232	1485.27612	-100.93850	83.41613	1508.75208	89.98127	34.95481	1426.33276	195.81665	1688.45593																					 
203	2.020	1359.99988	301.42102	1653.08350	1491.72180	308.15378	1643.24695	1366.92896	169.99031	1594.72888	1496.44714	177.66292	1590.24451	1428.66455	174.56479	1440.86963	1442.96973	133.11079	1112.50146	1419.98157	282.82303	1362.53174	1414.72656	318.25870	1185.76282	1518.27490	104.61120	1273.42029	1262.94543	212.20940	1393.28040	1197.59399	163.17346	1197.34680	1191.53894	132.69725	1088.90454	1172.58167	124.00754	937.82794	1212.79944	163.99280	814.64148	1180.36450	99.79276	821.05066	1179.72583	123.57442	733.18036	1583.64478	254.43959	1396.79419	1672.32092	238.15674	1195.71570	1680.51733	260.97247	1075.17358	1689.52661	293.33658	958.61438	1642.37683	363.93613	829.48059	1690.88757	318.56549	823.39868	1683.80322	364.44818	752.68201	1332.32141	312.46854	954.50751	1551.36145	305.39182	953.40631	1355.07605	152.01839	980.09644	1523.32593	154.01654	980.32257	1264.61902	293.67642	644.72174	1292.45996	329.19821	487.66977	1300.78650	351.26266	232.81432	1343.04724	391.11292	66.33898	1394.20605	358.19211	52.27816	1333.99255	537.36926	47.53664	1595.50659	206.76282	619.04614	1574.62061	185.34869	493.85016	1570.70825	39.01833	265.22263	1526.49304	-50.17943	99.20914	1486.29199	-99.15678	88.04448	1508.91431	89.83987	34.81876	1423.96301	202.88773	1689.08276																					 
204	2.030	1357.76025	308.67313	1654.05103	1489.45862	315.33548	1644.45142	1364.75525	177.30652	1595.47815	1494.24390	185.02879	1591.23645	1426.74219	181.93842	1441.79199	1441.68787	140.52049	1113.67615	1418.23474	290.32236	1363.51160	1413.21777	325.84976	1186.78894	1516.76648	112.19218	1274.60254	1261.11584	220.12299	1394.15027	1196.04688	171.98839	1197.85486	1190.05542	141.77654	1089.37830	1171.25476	133.59546	938.24506	1211.88232	173.56647	815.16425	1179.01489	109.48119	821.29657	1178.61182	133.40807	733.63910	1581.79688	261.98132	1398.18188	1670.53967	244.80107	1197.27429	1678.63184	267.14459	1076.48230	1687.89783	298.82962	959.67706	1641.04663	368.32980	829.85449	1689.59692	322.71649	824.36700	1682.81824	368.41101	753.21063	1330.36755	319.82816	955.83368	1549.49011	313.36389	954.08783	1353.86243	159.58740	981.50494	1522.08716	161.84236	981.25641	1263.32190	299.00696	645.65088	1290.82935	333.45361	488.15387	1300.21423	353.15320	233.05484	1342.77881	391.91910	66.34312	1393.75574	358.74023	52.36066	1334.65527	538.28906	46.39255	1594.17212	215.02637	619.46503	1573.67041	193.97066	494.19672	1570.71472	44.55759	267.62964	1527.41064	-47.66077	103.10378	1487.37280	-97.04649	93.08459	1508.84241	90.01329	34.77591	1421.66504	209.97334	1689.98743																					 
